<svg xmlns="http://www.w3.org/2000/svg" version="1.1" xmlns:xlink="http://www.w3.org/1999/xlink" width="40" height="40"><svg xmlns="http://www.w3.org/2000/svg" fill="none" viewBox="0 0 40 40"><path fill="#50B848" d="M18.992 0v9.055L26.361 0h-7.369zM3.127 4.308c.514-.826 1.067-1.478 1.831-2.09l.58-.395a6.663 6.663 0 0 1 1.66-.649 7.405 7.405 0 0 1 1.096-.115c.512.017.95.081 1.447.204.349.111.665.236.996.393a7.089 7.089 0 0 1 1.9 1.514l.433.547c.634.929 1.045 1.85 1.348 2.925l.164.73c.021.117.04.233.053.345V0H2v7.738c.157-.854.408-1.974.793-2.805l.333-.625zm28.502-3.056L18.992 16.78v3.523c.015-.113.034-.228.054-.343l.163-.73c.304-1.076.715-1.997 1.349-2.927l.432-.548c.493-.536.973-.951 1.592-1.34a8.44 8.44 0 0 1 .962-.458 6.158 6.158 0 0 1 2.165-.302l.728.106c.608.152 1.105.35 1.651.654.303.186.577.385.854.606.822.738 1.394 1.522 1.895 2.5l.286.658c.23.621.396 1.535.505 2.15V1.252z"></path><path fill="#50B848" d="M25.335 26.953c-1.783 0-3.235-2.276-3.235-5.07 0-2.791 1.452-5.067 3.235-5.067 1.785 0 3.24 2.276 3.24 5.068 0 2.793-1.455 5.069-3.24 5.069zm0-11.459c-2.525 0-4.583 2.87-4.583 6.39 0 3.52 2.058 6.392 4.583 6.392 2.524 0 4.585-2.872 4.585-6.392.002-3.52-2.06-6.39-4.585-6.39z"></path><path fill="#50B848" d="M19.209 24.541l-.163-.733c-.02-.116-.039-.23-.053-.341v7.718h12.635v-7.68c-.16.856-.409 1.914-.792 2.746l-.337.627c-.514.823-1.065 1.472-1.828 2.088l-.583.392a6.514 6.514 0 0 1-1.652.65c-.377.067-.72.104-1.101.117a6.57 6.57 0 0 1-1.448-.204 8.317 8.317 0 0 1-.995-.392 7.175 7.175 0 0 1-1.902-1.515l-.433-.55c-.633-.926-1.042-1.85-1.348-2.923zm-4.574-13.66a5.978 5.978 0 0 1-.054.344l-.164.73c-.303 1.076-.713 1.998-1.348 2.925l-.433.55c-.49.534-.974.949-1.593 1.34a8.59 8.59 0 0 1-.961.457 5.978 5.978 0 0 1-2.162.298l-.724-.1a6.522 6.522 0 0 1-1.659-.655 9.184 9.184 0 0 1-.852-.608c-.824-.74-1.393-1.519-1.893-2.499-.399-.917-.614-1.78-.792-2.77V29.93l12.635-15.524v-3.526z"></path><path fill="#50B848" d="M8.293 14.366c-1.783 0-3.24-2.275-3.24-5.066 0-2.792 1.457-5.072 3.24-5.072 1.78 0 3.232 2.28 3.232 5.072 0 2.791-1.451 5.066-3.232 5.066zm0-11.456c-2.525 0-4.585 2.868-4.585 6.39 0 3.518 2.06 6.387 4.585 6.387 2.522 0 4.58-2.87 4.58-6.388 0-3.52-2.058-6.39-4.58-6.39zm6.342 19.223l-7.369 9.053h7.37v-9.053zM31.262 0h-3.55L2.38 31.186H5.88L31.262 0zM17.904 29.04h-2.168v2.146h2.168v-2.147z"></path><path fill="#50B848" d="M32.72 29.04v2.146c1.482 0 2.686 1.187 2.686 2.65 0 1.466-1.204 2.653-2.685 2.653-1.09 0-2.087-.244-4.157-.753-4.011-.982-8.95-2.195-12.905-3.165-7.108-1.742-13.63.234-13.657 4.852H4.17c0-1.717 3.326-2.856 10.447-1.112l13.115 3.217c3.062.75 5.573.57 7.377-.29l.007.007c1.804-.876 3.044-2.71 3.044-4.828 0-2.972-2.436-5.378-5.438-5.378z"></path></svg><style>@media (prefers-color-scheme: light) { :root { filter: none; } }
@media (prefers-color-scheme: dark) { :root { filter: none; } }
</style></svg>